<mxfile host="app.diagrams.net" modified="2023-04-29T07:58:36.526Z" agent="Mozilla/5.0 (X11; Linux x86_64; rv:109.0) Gecko/20100101 Firefox/112.0" etag="1ZRirsM4AlMSADniNWE8" version="21.2.3" type="device">
  <diagram name="Page-1" id="RhGbnne-OYRFF3Z3artu">
    <mxGraphModel dx="2284" dy="730" grid="1" gridSize="10" guides="1" tooltips="1" connect="1" arrows="1" fold="1" page="1" pageScale="1" pageWidth="850" pageHeight="1100" math="0" shadow="0">
      <root>
        <mxCell id="0" />
        <mxCell id="1" parent="0" />
        <mxCell id="yr1k9GJffEIeBtFJ-WGa-1" value="" style="shape=image;html=1;verticalAlign=top;verticalLabelPosition=bottom;labelBackgroundColor=#ffffff;imageAspect=0;aspect=fixed;image=https://cdn0.iconfinder.com/data/icons/phosphor-fill-vol-2/256/file-csv-fill-128.png" vertex="1" parent="1">
          <mxGeometry x="-220" y="270" width="100" height="100" as="geometry" />
        </mxCell>
        <mxCell id="yr1k9GJffEIeBtFJ-WGa-3" value="" style="shape=image;imageAspect=0;aspect=fixed;verticalLabelPosition=bottom;verticalAlign=top;image=data:image/svg+xml,PHN2ZyBwcmVzZXJ2ZUFzcGVjdFJhdGlvPSJ4TWlkWU1pZCIgeG1sbnM6eGxpbms9Imh0dHA6Ly93d3cudzMub3JnLzE5OTkveGxpbmsiIHhtbG5zPSJodHRwOi8vd3d3LnczLm9yZy8yMDAwL3N2ZyIgdmVyc2lvbj0iMS4xIiB2aWV3Qm94PSIwLjAwNTAxNDcxMDU5Mzk2ODYzIDAuMjAzNjQ0MjYwNzY0MTIyIDUxMS43MzM2NDI1NzgxMjUgMjMzLjQ4NzQ0MjAxNjYwMTU2IiBoZWlnaHQ9IjM2NC44MjQxMjgxNTA5Mzk5NCIgd2lkdGg9Ijc5OS41ODM4MTY1MjgzMjAzIj4mI3hhOwkJPGcgZmlsbD0iIzFBMTkxOSI+JiN4YTsJCQkJPHBhdGggZD0iTTQ5Ljc2MzQ4MTMsMjAuOTc5NTkwNSBDNDcuMTgwOTA1MywxOC4zODY5ODUxIDQzLjU5Nzg5NDUsMTYuNzg5Nzk5OCAzOS42MDM2Nzc1LDE2Ljc4OTc5OTggQzM1LjYxOTQ4OTksMTYuNzg5Nzk5OCAzMi4wNjQwNiwxOC4zODY5ODUxIDI5LjUxNDA3OTYsMjAuOTc5NTkwNSBMMjkuNDQ4ODg4NCwyMC45Nzk1OTA1IEMyNi44NzM4MzQ1LDIzLjU1NDY0NDUgMjUuMjc2NjQ5MSwyNy4xNDc2ODQ3IDI1LjI3NjY0OTEsMzEuMTE2ODI4MiBDMjUuMjc2NjQ5MSwzNS4xMDg1Mzc4IDI2Ljg3MzgzNDUsMzguNjc5MDExOCAyOS40NDg4ODg0LDQxLjIyODk5MjIgTDI5LjUxNDA3OTYsNDEuMjk5MTk4MiBDMzIuMDY0MDYsNDMuODY5MjM3NCAzNS42MTk0ODk5LDQ1LjQ0Mzg1NjUgMzkuNjAzNjc3NSw0NS40NDM4NTY1IEM0My41OTc4OTQ1LDQ1LjQ0Mzg1NjUgNDcuMTgwOTA1Myw0My44NjkyMzc0IDQ5Ljc2MzQ4MTMsNDEuMjk5MTk4MiBMNDkuNzkzNTY5NSw0MS4yMjg5OTIyIEM1Mi4zNzg2NTI5LDM4LjY3OTAxMTggNTMuOTU1Nzc5NCwzNS4xMDg1Mzc4IDUzLjk1NTc3OTQsMzEuMTE2ODI4MiBDNTMuOTU1Nzc5NCwyNy4xNDc2ODQ3IDUyLjM3ODY1MjksMjMuNTU0NjQ0NSA0OS43OTM1Njk1LDIwLjk3OTU5MDUgTDQ5Ljc2MzQ4MTMsMjAuOTc5NTkwNSBaIE0zOS42MDM2Nzc1LDIxNy4xMDQ5MjUgQzQzLjU5Nzg5NDUsMjE3LjEwNDkyNSA0Ny4xODA5MDUzLDIxNS40Nzc2NTEgNDkuNzYzNDgxMywyMTIuOTMyNjg1IEw0OS43OTM1Njk1LDIxMi44NTc0NjUgQzUyLjM3ODY1MjksMjEwLjMxNzUxNCA1My45NTU3Nzk0LDIwNi43MjQ0NzQgNTMuOTU1Nzc5NCwyMDIuNzc1Mzg5IEM1My45NTU3Nzk0LDE5OC43ODM2NzkgNTIuMzc4NjUyOSwxOTUuMjA4MTkxIDQ5Ljc5MzU2OTUsMTkyLjYyMDYgTDQ5Ljc2MzQ4MTMsMTkyLjYyMDYgQzQ3LjE4MDkwNTMsMTkwLjAwMjkyMSA0My41OTc4OTQ1LDE4OC40MjA3OCAzOS42MDM2Nzc1LDE4OC40MjA3OCBDMzUuNjE5NDg5OSwxODguNDIwNzggMzIuMDY0MDYsMTkwLjAwMjkyMSAyOS41MTQwNzk2LDE5Mi42MjA2IEwyOS40NDg4ODg0LDE5Mi42MjA2IEMyNi44NzM4MzQ1LDE5NS4yMDgxOTEgMjUuMjc2NjQ5MSwxOTguNzgzNjc5IDI1LjI3NjY0OTEsMjAyLjc3NTM4OSBDMjUuMjc2NjQ5MSwyMDYuNzI0NDc0IDI2Ljg3MzgzNDUsMjEwLjMxNzUxNCAyOS40NDg4ODg0LDIxMi44NTc0NjUgTDI5LjUxNDA3OTYsMjEyLjkzMjY4NSBDMzIuMDY0MDYsMjE1LjQ3NzY1MSAzNS42MTk0ODk5LDIxNy4xMDQ5MjUgMzkuNjAzNjc3NSwyMTcuMTA0OTI1IFogTTExNy42NjUxNzEsMTczLjY5NTA4MiBDMTIxLjIxMzA3OSwxNzIuNzYyMzQ2IDEyNC40MjUwMDEsMTcwLjQ4NTY2NyAxMjYuMzg4MjYsMTY3LjA0MDU2MSBMMTI2LjY1MTUzMywxNjYuNTM2NTgyIEMxMjguMzk2NjUyLDE2My4yNzQ1MTMgMTI4LjcxNTA4NiwxNTkuNTAzNDUxIDEyNy43ODIzNSwxNTYuMTU2MTMxIEMxMjYuODQyMDkyLDE1Mi41ODMxNSAxMjQuNTQwMzM5LDE0OS40MTM4NTMgMTIxLjEwMjc1NSwxNDcuNDQwNTY0IEwxMjAuODk5NjU5LDE0Ny4zMDUxNjcgQzExNy41NDk4MzMsMTQ1LjQ2NDc2OCAxMTMuNzM4NjUzLDE0NS4wNjM1OTEgMTEwLjIzMzM3LDE0Ni4wMTg4OTQgQzEwNi42NzA0MTgsMTQ2LjkwOTAwNSAxMDMuNDY4NTI1LDE0OS4yODA5NjMgMTAxLjUxNzgwMywxNTIuNjk1OTgxIEM5OS41NDIwMDY3LDE1Ni4wOTA5NCA5OS4xMzA4MDA0LDE1OS45OTIzODUgMTAwLjA3NjA3MywxNjMuNTgyOTE4IEMxMDEuMDUxNDM1LDE2Ny4xMTU3ODEgMTAzLjMzNTYzNSwxNzAuMzA3NjQ1IDEwNi43NTMxNjEsMTcyLjMwMzUgTDEwNi43NzMyMTksMTcyLjMwMzUgQzExMC4xOTgyNjcsMTc0LjI3MTc3NCAxMTQuMDY5NjIzLDE3NC42MjUzMTEgMTE3LjY2NTE3MSwxNzMuNjk1MDgyIFogTTU0LjI5OTI4NzEsMTAyLjI2NTU0MyBDNTAuNTM4MjU0MSw5OC41MTQ1Mzk1IDQ1LjM0ODAyODUsOTYuMTYyNjQwMiAzOS42MDM2Nzc1LDk2LjE2MjY0MDIgQzMzLjg2Njg0ODUsOTYuMTYyNjQwMiAyOC42OTE2NjcxLDk4LjUxNDUzOTUgMjQuOTM4MTU2MSwxMDIuMjY1NTQzIEMyMS4xOTcxODIsMTA2LjAxMTUzMiAxOC44OTA0MTUxLDExMS4xNzkxOTEgMTguODkwNDE1MSwxMTYuOTIzNTQyIEMxOC44OTA0MTUxLDEyMi42Njc4OTMgMjEuMTk3MTgyLDEyNy44NTgxMTkgMjQuOTM4MTU2MSwxMzEuNjQ2NzMzIEMyOC42OTE2NjcxLDEzNS4zNzUxNyAzMy44NjY4NDg1LDEzNy43MDQ1MDMgMzkuNjAzNjc3NSwxMzcuNzA0NTAzIEM0NS4zNDgwMjg1LDEzNy43MDQ1MDMgNTAuNTM4MjU0MSwxMzUuMzc1MTcgNTQuMjk5Mjg3MSwxMzEuNjQ2NzMzIEM1OC4wNTAyOTA3LDEyNy44NTgxMTkgNjAuMzU3MDU3NiwxMjIuNjY3ODkzIDYwLjM1NzA1NzYsMTE2LjkyMzU0MiBDNjAuMzU3MDU3NiwxMTEuMTc5MTkxIDU4LjA1MDI5MDcsMTA2LjAxMTUzMiA1NC4yOTkyODcxLDEwMi4yNjU1NDMgWiBNNDYuMDM1MDQzOSw3Ny44NDY0MDk1IEM1NC4zNzQ1MDc3LDc5LjIyMDQ0MDIgNjEuODYxNDcwOCw4My4yMTQ2NTczIDY3LjU4NTc2Myw4OC45NzkwNjcyIEw2Ny42MjgzODgsODguOTc5MDY3MiBDNjguNTM4NTU4LDg5Ljg4NjcyOTggNjkuNDIzNjU0NCw5MC44ODcxNjQ2IDcwLjI0ODU3NDMsOTEuODg1MDkyIEw4NC41NTMwMzY1LDgzLjYxMDgxOTQgQzgyLjYyOTg5NSw3Ny43OTg3Njk3IDgyLjUzOTYzMDIsNzEuNzIzNDQ3OCA4NC4wODY2Njg0LDY2LjAyNDIyOTEgQzg2LjEyNTE0ODMsNTguMzk0MzQ2OCA5MS4wNzIxNjA0LDUxLjU2NDMxMDkgOTguNDg4OTE3NSw0Ny4yODQyNTUzIEw5OC43Mjk2MjM2LDQ3LjEzMTMwNjcgQzEwNi4wNjYxNDUsNDIuOTgxNjMzNiAxMTQuNDAzMTAyLDQyLjExNjU5NiAxMjEuOTI3Njc1LDQ0LjE1NTA3NTkgQzEyOS41NTAwMzUsNDYuMTk4NTcwNSAxMzYuNDI1MjA0LDUxLjE2ODE0ODggMTQwLjcwNTI1OSw1OC41NzIzNjkgTDE0MC43MDUyNTksNTguNTk0OTM1MiBDMTQ0Ljk2NTI1Niw2NS45NTkwMzc5IDE0NS44Mjc3ODYsNzQuNDA4ODI1MyAxNDMuNzk2ODI4LDgyLjAxNjE0MTQgQzE0MS43NjgzNzgsODkuNjQzNTE2MyAxMzYuODAzODE0LDk2LjUyMTE5MiAxMjkuMzk0NTc5LDEwMC43NzYxNzQgTDEyNy40NDEzNDksMTAxLjkyOTU1NyBMMTI3LjI0MzI2OCwxMDEuOTI5NTU3IEMxMjAuMzkwNjY2LDEwNS4xOTE2MjcgMTEyLjg1NjA2NCwxMDUuNzAzMTI3IDEwNS45MzU3NjMsMTAzLjg4MDI4IEMxMDAuMjU0MDk2LDEwMi4zNzU4NjcgOTUuMDQzODExMiw5OS4yMDE1NTQ5IDkwLjk2MTgzNjcsOTQuNzAwODUyIEw3Ni42Nzc0MzM0LDEwMi45NTI1NTggQzc4LjMxOTc1MTIsMTA3LjI5NTI5OCA3OS4yMjc0MTM4LDExMS45NzY1MyA3OS4yMjc0MTM4LDExNi45MjM1NDIgQzc5LjIyNzQxMzgsMTIxLjg0NTQ4MSA3OC4zMTk3NTEyLDEyNi41OTQ0MTIgNzYuNjc3NDMzNCwxMzAuOTU5NzE3IEw5MC45NjE4MzY3LDEzOS4xODg4NTggQzk1LjA0MzgxMTIsMTM0LjYxNzk0OSAxMDAuMjU0MDk2LDEzMS41MTYzNSAxMDUuOTM1NzYzLDEzMC4wMDY5MjIgQzExMy41NjA2MywxMjcuOTIzMzEgMTIyLjAxMDQxOCwxMjguODA4NDA3IDEyOS4zOTQ1NzksMTMzLjExMzUzNiBMMTI5Ljg2ODQ2OSwxMzMuMzM0MTgzIEwxMjkuODY4NDY5LDEzMy4zNTY3NDkgQzEzNy4wMDE4OTUsMTM3LjY4MTkzNyAxNDEuNzkwOTQ0LDE0NC4zNTY1MTcgMTQzLjc5NjgyOCwxNTEuODk2MTM1IEMxNDUuODI3Nzg2LDE1OS40NTgzMTggMTQ0Ljk2NTI1NiwxNjcuOTEzMTIgMTQwLjcwNTI1OSwxNzUuMjkyMjY3IEwxNDAuNDQ3MDAyLDE3NS44MDYyNzUgTDE0MC40MTY5MTMsMTc1Ljc2MzY1IEMxMzYuMTM5MzY1LDE4Mi44NzcwMTcgMTI5LjM5NDU3OSwxODcuNjk2MTU0IDEyMS45NTAyNDEsMTg5LjczNDYzNCBDMTE0LjMxNTM0NCwxOTEuNzQ4MDQgMTA1Ljg2MzA0OSwxOTAuODg4MDE3IDk4LjQ4ODkxNzUsMTg2LjY0NTU3MiBMOTguNDg4OTE3NSwxODYuNTg3OTAzIEM5MS4wNzIxNjA0LDE4Mi4zMDAzMjUgODYuMTI1MTQ4MywxNzUuNDU1MjQ1IDg0LjA4NjY2ODQsMTY3Ljg0MDQwNyBDODIuNTM5NjMwMiwxNjIuMTY2MjYyIDgyLjYyOTg5NSwxNTYuMDkwOTQgODQuNTUzMDM2NSwxNTAuMjgxMzk4IEw3MC4yNDg1NzQzLDE0Mi4wMjcxODQgQzY5LjQyMzY1NDQsMTQzLjAyNTExMSA2OC41Mzg1NTgsMTQzLjk4MDQxNCA2Ny42MjgzODgsMTQ0Ljg4ODA3NiBMNjcuNTg1NzYzLDE0NC45MzMyMDkgQzYxLjg2MTQ3MDgsMTUwLjY3NzU2IDU0LjM3NDUwNzcsMTU0LjY2OTI3IDQ2LjAzNTA0MzksMTU1Ljk5ODE2OCBMNDYuMDM1MDQzOSwxNzIuNTI2NjU0IEM1MS45Nzc0NzYsMTczLjc2Nzc5NSA1Ny4yOTgwODQxLDE3Ni43MzkwMTEgNjEuNDY1MzA4NiwxODAuOTA4NzQzIEw2MS40ODc4NzQ4LDE4MC45NTEzNjggQzY3LjA3NDI2MjUsMTg2LjUxMjY4MiA3MC41MzQ0MTI5LDE5NC4yNjA0MSA3MC41MzQ0MTI5LDIwMi43NzUzODkgQzcwLjUzNDQxMjksMjExLjI2NTI5NCA2Ny4wNzQyNjI1LDIxOC45Njc4OSA2MS40ODc4NzQ4LDIyNC41NTY3ODUgTDYxLjQ2NTMwODYsMjI0LjY0NDU0MiBDNTUuODM4ODAzMywyMzAuMjMwOTMgNDguMTIxMTYzNSwyMzMuNjkxMDggMzkuNjAzNjc3NSwyMzMuNjkxMDggQzMxLjEzMTMyMzgsMjMzLjY5MTA4IDIzLjM5MzYyNTMsMjMwLjIzMDkzIDE3Ljc3OTY1NjcsMjI0LjY0NDU0MiBMMTcuNzU3MDkwNSwyMjQuNjQ0NTQyIEwxNy43NTcwOTA1LDIyNC41NTY3ODUgQzEyLjE2NTY4ODEsMjE4Ljk2Nzg5IDguNjk4MDE1NjUsMjExLjI2NTI5NCA4LjY5ODAxNTY1LDIwMi43NzUzODkgQzguNjk4MDE1NjUsMTk0LjI2MDQxIDEyLjE2NTY4ODEsMTg2LjUxMjY4MiAxNy43NTcwOTA1LDE4MC45NTEzNjggTDE3Ljc1NzA5MDUsMTgwLjkwODc0MyBMMTcuNzc5NjU2NywxODAuOTA4NzQzIEMyMS45NDQzNzM5LDE3Ni43MzkwMTEgMjcuMjc1MDExMywxNzMuNzY3Nzk1IDMzLjE5NDg3NzIsMTcyLjUyNjY1NCBMMzMuMTk0ODc3MiwxNTUuOTk4MTY4IEMyNC44NTc5MjA4LDE1NC42NjkyNyAxNy4zODM0OTQ1LDE1MC42Nzc1NiAxMS42NjkyMzE3LDE0NC45MzMyMDkgTDExLjYwOTA1NTIsMTQ0Ljg4ODA3NiBDNC40NzMxMjE5MSwxMzcuNzI3MDcgMC4wMDUwMTQ3MTA2NiwxMjcuODU4MTE5IDAuMDA1MDE0NzEwNjYsMTE2LjkyMzU0MiBDMC4wMDUwMTQ3MTA2NiwxMDYuMDExNTMyIDQuNDczMTIxOTEsOTYuMTQyNTgxMyAxMS42MDkwNTUyLDg4Ljk3OTA2NzIgTDExLjY2OTIzMTcsODguOTc5MDY3MiBDMTcuMzgzNDk0NSw4My4yMTQ2NTczIDI0Ljg1NzkyMDgsNzkuMjIwNDQwMiAzMy4xOTQ4NzcyLDc3Ljg0NjQwOTUgTDMzLjE5NDg3NzIsNjEuMzg4MTI5MSBDMjcuMjc1MDExMyw2MC4xMDQzNjMyIDIxLjk0NDM3MzksNTcuMTMzMTQ3MSAxNy43Nzk2NTY3LDUyLjk4NTk4MTQgTDE3Ljc1NzA5MDUsNTIuOTg1OTgxNCBMMTcuNzU3MDkwNSw1Mi45NDA4NDkgQzEyLjE2NTY4ODEsNDcuMzI5Mzg3NyA4LjY5ODAxNTY1LDM5LjYzNDMxNDIgOC42OTgwMTU2NSwzMS4xMTY4MjgyIEM4LjY5ODAxNTY1LDIyLjY0NDQ3NDUgMTIuMTY1Njg4MSwxNC44ODE3MDI0IDE3Ljc1NzA5MDUsOS4yOTI4MDczNSBMMTcuNzc5NjU2Nyw5LjI3MDI0MTE1IEMyMy4zOTM2MjUzLDMuNjYxMjg3MjcgMzEuMTMxMzIzOCwwLjIwMzY0NDI2NiAzOS42MDM2Nzc1LDAuMjAzNjQ0MjY2IEM0OC4xMjExNjM1LDAuMjAzNjQ0MjY2IDU1LjgzODgwMzMsMy42NjEyODcyNyA2MS40NjUzMDg2LDkuMjcwMjQxMTUgTDYxLjQ2NTMwODYsOS4yOTI4MDczNSBMNjEuNDg3ODc0OCw5LjI5MjgwNzM1IEM2Ny4wNzQyNjI1LDE0Ljg4MTcwMjQgNzAuNTM0NDEyOSwyMi42NDQ0NzQ1IDcwLjUzNDQxMjksMzEuMTE2ODI4MiBDNzAuNTM0NDEyOSwzOS42MzQzMTQyIDY3LjA3NDI2MjUsNDcuMzI5Mzg3NyA2MS40ODc4NzQ4LDUyLjk0MDg0OSBMNjEuNDY1MzA4Niw1Mi45ODU5ODE0IEM1Ny4yOTgwODQxLDU3LjEzMzE0NzEgNTEuOTc3NDc2LDYwLjEwNDM2MzIgNDYuMDM1MDQzOSw2MS4zODgxMjkxIEw0Ni4wMzUwNDM5LDc3Ljg0NjQwOTUgWiBNMTI2LjM4ODI2LDY2Ljg2OTIwNzggTDEyNi4yNjU0LDY2LjY4ODY3ODMgQzEyNC4yOTQ2MTksNjMuMzYzOTI1MSAxMjEuMTQ1MzgsNjEuMTQ3NDIzIDExNy42NjUxNzEsNjAuMTkyMTIwNiBDMTE0LjA2OTYyMyw1OS4yMzY4MTgyIDExMC4xOTgyNjcsNTkuNjM3OTk1MSAxMDYuNzUzMTYxLDYxLjYxMzc5MTEgTDEwNi43NzMyMTksNjEuNjEzNzkxMSBDMTAzLjMzNTYzNSw2My41NjQ1MTM1IDEwMS4wMzYzOSw2Ni43NTM4Njk1IDEwMC4wNzYwNzMsNzAuMzI5MzU4MiBDOTkuMTMwODAwNCw3My44NzcyNjYgOTkuNTQyMDA2Nyw3Ny43OTg3Njk3IDEwMS41MTc4MDMsODEuMjE2Mjk1MSBMMTAxLjU4NTUwMSw4MS4zMDQwNTI1IEMxMDMuNTYzODA1LDg0LjY3NjQ0NTQgMTA2LjcxNTU1LDg2LjkzODA3OTkgMTEwLjIzMzM3LDg3Ljg0ODI0OTkgQzExMy43Njg3NDEsODguODQ4Njg0NyAxMTcuNzA3Nzk2LDg4LjQyNDk0MTYgMTIxLjEwMjc1NSw4Ni40NDkxNDU2IEwxMjEuMjg1NzkyLDg2LjM2MTM4ODIgQzEyNC42MjgwOTcsODQuMzY1NTMzNCAxMjYuODU0NjI4LDgxLjIxNjI5NTEgMTI3Ljc4MjM1LDc3Ljc1NjE0NDcgQzEyOC43MzAxMyw3NC4xODU2NzA3IDEyOC4zNTE1MTksNzAuMjg0MjI1OCAxMjYuMzg4MjYsNjYuODY5MjA3OCBaIj4mI3hhOyYjeGE7PC9wYXRoPiYjeGE7CQkJCTxwYXRoIGQ9Ik0xODkuODU5NDUzLDcxLjcwMzM4ODkgTDIwNS44MjEyNzcsNzEuNzAzMzg4OSBMMjA1LjgyMTI3NywxMjAuNDI2MzE4IEwyMjguODM4Nzk5LDk0Ljk2NjYzMTcgTDI0Ny45Nzc0NDIsOTQuOTY2NjMxNyBMMjIwLjE4ODQyMywxMjQuNDYzMTYgTDI0OC4wOTI3ODEsMTYxLjg1Mjg0MyBMMjI5LjgxNjY2OCwxNjEuODUyODQzIEwyMDUuODIxMjc3LDEyOC40NTQ4NyBMMjA1LjgyMTI3NywxNjEuODUyODQzIEwxODkuODU5NDUzLDE2MS44NTI4NDMgTDE4OS44NTk0NTMsNzEuNzAzMzg4OSBaIE0yNjYuNTE5MzM1LDEyOC42OTgwODMgQzI2Ni41MTkzMzUsMTM2Ljk5NDkyMiAyNzIuNDg2ODQxLDE0OS4wNTc4MDggMjg2Ljg2NDAxNiwxNDkuMDU3ODA4IEMyOTUuNzYwMTEzLDE0OS4wNTc4MDggMzAxLjYxNDc4OCwxNDQuNDIxNzA4IDMwNC42NTExOTUsMTM4LjM0NjM4NiBDMzA2LjI0MDg1OCwxMzUuMzk3NzM2IDMwNi45NzMwMDYsMTMyLjI0NTk5MSAzMDcuMjE4NzI3LDEyOC45NjYzNyBDMzA3LjMyOTA1LDEyNS43OTIwNTggMzA2LjcyOTc5MywxMjIuNDkyMzc5IDMwNS4zODA4MzUsMTE5LjU2MTI4IEMzMDIuNTgyNjI3LDExMy4yNDI3NDUgMjk2LjM3MTkwOCwxMDcuNzY0MTczIDI4Ni43NDYxNzEsMTA3Ljc2NDE3MyBDMjczLjgzODMwNSwxMDcuNzY0MTczIDI2Ni41MTkzMzUsMTE4LjIyOTg3NCAyNjYuNTE5MzM1LDEyOC41ODc3NTkgTDI2Ni41MTkzMzUsMTI4LjY5ODA4MyBaIE0zMjMuMDUyNjc2LDE2MS44NTI4NDMgTDMwNy4wODMzMywxNjEuODUyODQzIEwzMDcuMDgzMzMsMTUyLjIyOTYxMyBDMzAyLjgzMzM2MiwxNjAuMDEyNDQ0IDI5My45MzQ3NTgsMTYzLjkxODkwMyAyODQuNTQ5NzI3LDE2My45MTg5MDMgQzI2My4xMDQzMTcsMTYzLjkxODkwMyAyNTAuNTYwMDE4LDE0Ny4yMTc0MDkgMjUwLjU2MDAxOCwxMjguMzQ0NTQ2IEMyNTAuNTYwMDE4LDEwNy4yNzUyMzkgMjY1Ljc4NzE4Nyw5Mi45MDMwNzgzIDI4NC41NDk3MjcsOTIuOTAzMDc4MyBDMjk2LjczMjk2Nyw5Mi45MDMwNzgzIDMwNC4xNjIyNjEsOTkuMzU5NTE4MiAzMDcuMDgzMzMsMTA0LjcyNTI1OSBMMzA3LjA4MzMzLDk0Ljk2NjYzMTcgTDMyMy4wNTI2NzYsOTQuOTY2NjMxNyBMMzIzLjA1MjY3NiwxNjEuODUyODQzIFogTTM0MS4xMjU2OTMsMTA3LjI3NTIzOSBMMzMyLjg1MzkyOCwxMDcuMjc1MjM5IEwzMzIuODUzOTI4LDk0Ljk2NjYzMTcgTDM0MS4xMjU2OTMsOTQuOTY2NjMxNyBMMzQxLjEyNTY5Myw5MS4xOTgwNzY2IEMzNDEuMTI1NjkzLDcxLjMyNDc3ODMgMzU2LjIzNzUyNCw3MC4xMjYyNjI0IDM2Ny42OTYxMzcsNjkuOTkzMzcyNiBMMzY3LjY5NjEzNyw4Mi4yNzk0MTM3IEMzNjMuNjY2ODE3LDgyLjI3OTQxMzcgMzU3LjA5NTAzOSw4Mi4yNzk0MTM3IDM1Ny4wOTUwMzksOTEuNjgxOTk2MiBMMzU3LjA5NTAzOSw5NC45NjY2MzE3IEwzNjcuNjk2MTM3LDk0Ljk2NjYzMTcgTDM2Ny42OTYxMzcsMTA3LjI3NTIzOSBMMzU3LjA5NTAzOSwxMDcuMjc1MjM5IEwzNTcuMDk1MDM5LDE2MS44NTI4NDMgTDM0MS4xMjU2OTMsMTYxLjg1Mjg0MyBMMzQxLjEyNTY5MywxMDcuMjc1MjM5IFogTTM3OC41NTA0NzksNzEuNzAzMzg4OSBMMzk0LjUwNzI4OCw3MS43MDMzODg5IEwzOTQuNTA3Mjg4LDEyMC40MjYzMTggTDQxNy41Mjk4MjUsOTQuOTY2NjMxNyBMNDM2LjY2ODQ2OCw5NC45NjY2MzE3IEw0MDguODc5NDQ5LDEyNC40NjMxNiBMNDM2Ljc3ODc5MiwxNjEuODUyODQzIEw0MTguNTAyNjc5LDE2MS44NTI4NDMgTDM5NC41MDcyODgsMTI4LjQ1NDg3IEwzOTQuNTA3Mjg4LDE2MS44NTI4NDMgTDM3OC41NTA0NzksMTYxLjg1Mjg0MyBMMzc4LjU1MDQ3OSw3MS43MDMzODg5IFogTTQ1NS4yMTAzNjEsMTI4LjY5ODA4MyBDNDU1LjIxMDM2MSwxMzYuOTk0OTIyIDQ2MS4xNzUzNTksMTQ5LjA1NzgwOCA0NzUuNTU1MDQyLDE0OS4wNTc4MDggQzQ4NC40Mzg2MDIsMTQ5LjA1NzgwOCA0OTAuMjkzMjc2LDE0NC40MjE3MDggNDkzLjMzNDY5OCwxMzguMzQ2Mzg2IEM0OTQuOTI5Mzc2LDEzNS4zOTc3MzYgNDk1LjY2NDAzMiwxMzIuMjQ1OTkxIDQ5NS45MDQ3MzgsMTI4Ljk2NjM3IEM0OTYuMDE1MDYxLDEyNS43OTIwNTggNDk1LjQxNTgwMywxMjIuNDkyMzc5IDQ5NC4wNjQzMzksMTE5LjU2MTI4IEM0OTEuMjcxMTQ1LDExMy4yNDI3NDUgNDg1LjA2MDQyNiwxMDcuNzY0MTczIDQ3NS40MzcxOTYsMTA3Ljc2NDE3MyBDNDYyLjUyNjgyMywxMDcuNzY0MTczIDQ1NS4yMTAzNjEsMTE4LjIyOTg3NCA0NTUuMjEwMzYxLDEyOC41ODc3NTkgTDQ1NS4yMTAzNjEsMTI4LjY5ODA4MyBaIE01MTEuNzM4Njg3LDE2MS44NTI4NDMgTDQ5NS43NzQzNTUsMTYxLjg1Mjg0MyBMNDk1Ljc3NDM1NSwxNTIuMjI5NjEzIEM0OTEuNTExODUxLDE2MC4wMTI0NDQgNDgyLjYyMDc2OSwxNjMuOTE4OTAzIDQ3My4yNDA3NTMsMTYzLjkxODkwMyBDNDUxLjc5NTM0MywxNjMuOTE4OTAzIDQzOS4yNjEwNzMsMTQ3LjIxNzQwOSA0MzkuMjYxMDczLDEyOC4zNDQ1NDYgQzQzOS4yNjEwNzMsMTA3LjI3NTIzOSA0NTQuNDgzMjI4LDkyLjkwMzA3ODMgNDczLjI0MDc1Myw5Mi45MDMwNzgzIEM0ODUuNDE2NDcsOTIuOTAzMDc4MyA0OTIuODUzMjg2LDk5LjM1OTUxODIgNDk1Ljc3NDM1NSwxMDQuNzI1MjU5IEw0OTUuNzc0MzU1LDk0Ljk2NjYzMTcgTDUxMS43Mzg2ODcsOTQuOTY2NjMxNyBMNTExLjczODY4NywxNjEuODUyODQzIFoiPiYjeGE7JiN4YTs8L3BhdGg+JiN4YTsJCTwvZz4mI3hhOzwvc3ZnPg==;" vertex="1" parent="1">
          <mxGeometry x="110" y="250" width="307.17" height="140" as="geometry" />
        </mxCell>
        <mxCell id="yr1k9GJffEIeBtFJ-WGa-4" value="" style="shape=image;imageAspect=0;aspect=fixed;verticalLabelPosition=bottom;verticalAlign=top;image=data:image/svg+xml,PHN2ZyB4bWxucz0iaHR0cDovL3d3dy53My5vcmcvMjAwMC9zdmciIHZpZXdCb3g9IjAgMCAzMiAzMiIgaGVpZ2h0PSI4MDBweCIgd2lkdGg9IjgwMHB4IiBmaWxsPSIjMDAwMDAwIj4mI3hhOyAgPHBhdGggZD0iTTE0LjQxNyAwYy0wLjU2OCAwLjAxNi0xLjEyNSAwLjI4Ni0xLjU5NCAwLjgwNy0wLjI2IDAuMjkyLTAuNDc5IDAuNjE1LTAuNjYxIDAuOTY0LTAuNDY5IDAuODg1LTAuNTYzIDEuODg1LTAuNzQgMi44NTQtMC4zMjggMS44MTgtMC42NTEgMy42MzUtMC45NjkgNS40NTMtMC4wMzYgMC4yMTQtMC4xMjUgMC4zMDItMC4zMjMgMC4zNTktMi4zNTkgMC43NDUtNC43MTkgMS40ODQtNy4wNjMgMi4yNS0wLjUxNiAwLjE2Ny0xLjAzMSAwLjM4NS0xLjQ4NCAwLjY3Mi0xLjM5MSAwLjg4NS0xLjU5OSAyLjMzOS0wLjU1NyAzLjYxNSAwLjQ2NCAwLjU2MyAxLjA1NyAwLjk1MyAxLjcxNCAxLjI0NSAxLjQ2OSAwLjY1NiAyLjkzOCAxLjMwMiA0LjQwMSAxLjk2NCAwLjAyNiAwLjAxMCAwLjA0NyAwLjAxNiAwLjA2OCAwLjAyNmgtMC4wMDVsMS43NDUgMC43MTRjMCAwLjAzMSAwIDAuMDU3IDAgMC4wOTQtMC4yNjYgMi43MDgtMC41MjEgNS40MTctMC43NzYgOC4xMy0wLjA1MiAwLjU1Ny0wLjAxNiAxLjEwNCAwLjE4MiAxLjY0MSAwLjQyMiAxLjE1NiAxLjQxNyAxLjUyNiAyLjUwNSAwLjkzMiAwLjQ5NS0wLjI3MSAwLjg5MS0wLjY2MSAxLjI1LTEuMDg5IDEuODI4LTIuMTY3IDMuNjYxLTQuMzI4IDUuNDg0LTYuNSAwLjE0Ni0wLjE3NyAwLjI3MS0wLjE5OCAwLjQ4NC0wLjEzIDAuNDY0IDAuMTU2IDAuOTI3IDAuMzA3IDEuMzkxIDAuNDY0aDAuMDA1YzAuMDI2IDAuMDE2IDAuMDU3IDAuMDI2IDAuMDk0IDAuMDQybDAuMTkzIDAuMDU3YzEuNjYxIDAuNTUyIDMuNTczIDEuMDMxIDUuMjM0IDEuNTgzIDAuNTM2IDAuMTc3IDAuODMzIDAuMjE5IDEuMzk2IDAuMTMgMC40MTctMC4wNjMgMC43OTItMC4wODMgMS4xMDQtMC4zMTMgMC44MDItMC40NDMgMS4zMjgtMS4yNzYgMS4zMTgtMi4yNDUtMC4wMDUtMC41NjgtMC4yMDgtMS4wODMtMC40NjktMS41NzgtMS4wOTQtMi4wNzgtMi4xODItNC4xNTEtMy4yODEtNi4yMjQtMC4xMDQtMC4xOTgtMC4wOTktMC4zMjMgMC4wNTItMC41IDEuODM5LTIuMTUxIDMuNjcyLTQuMzEzIDUuNTEtNi40NzQgMC4zNTktMC40MjcgMC42ODItMC44NzUgMC44Ny0xLjQxMSAwLjQxMS0xLjE2Ny0wLjEyLTIuMDk0LTEuMzMzLTIuMzE4LTAuNTQ3LTAuMDk0LTEuMTA5LTAuMDYzLTEuNjQ2IDAuMDg5LTIuNjM1IDAuNjk4LTUuMjY2IDEuMzkxLTcuODkxIDIuMDk0LTAuMjM0IDAuMDYzLTAuMzQ5IDAuMDIxLTAuNDc0LTAuMTkzLTEuMDYzLTEuNzkyLTIuMTQxLTMuNTc4LTMuMjI5LTUuMzU0LTAuMjQ1LTAuNDExLTAuNTM2LTAuNzkyLTAuODctMS4xMzUtMC40OTUtMC40OS0xLjA2OC0wLjcyOS0xLjYzNS0wLjcxNHpNMTQuNjQ2IDQuOTM4YzAuMTA0IDAuMDczIDAuMTkzIDAuMTY3IDAuMjUgMC4yODEgMS4xNjEgMS45MjcgMi4zMjMgMy44NTQgMy40NzkgNS43ODYgMC4wOTQgMC4xNTYgMC4xODIgMC4yMDggMC4zNyAwLjE1NiAyLjAzNi0wLjU0MiA0LjA2OC0xLjA4MyA2LjEwNC0xLjYyIDAuNDktMC4xMyAwLjk3OS0wLjI1NSAxLjQ3NC0wLjM4NS0wLjAyMSAwLjA5OS0wLjA2OCAwLjE5My0wLjEzNSAwLjI2Ni0xLjY3NyAxLjk3NC0zLjM1NCAzLjk0OC01LjAzNiA1LjkxNy0wLjE0NiAwLjE3Ny0wLjE2MSAwLjI5Ny0wLjA1NyAwLjQ5NSAxLjI1IDIuNDA2IDIuMzU5IDQuNDExIDMuMzMzIDYuMzQ5bC00LjkyNy0xLjM1OWMtMC43MTktMC4yNC0xLjQzOC0wLjQ3OS0yLjE1Ni0wLjcxOS0wLjIxNC0wLjA3My0wLjMzMy0wLjA0Mi0wLjQ3OSAwLjEzLTEuNjYxIDEuOTg0LTMuMzM5IDMuOTY0LTUuMDEwIDUuOTQzLTAuMDYzIDAuMDc4LTAuMTQ2IDAuMTQxLTAuMjQgMC4xNzIgMC4wNDctMC41IDAuMDg5LTEuMDA1IDAuMTM1LTEuNTEgMC4yMDMtMi4wOTkgMC4zOTYtNC4xOTMgMC42MDQtNi4yOTItMC4wNDItMC40MjIgMC4xNTYtMC41MzYtMC40MzItMC43MjQtMS45OS0wLjc5Mi00LjQ1OC0xLjc2LTYuNDE3LTIuNTQyIDAuMDg5LTAuMDgzIDAuMTk4LTAuMTQ2IDAuMzE4LTAuMTc3IDIuMzk2LTAuNzYgNC43OTItMS41MjEgNy4xOTMtMi4yNzYgMC4xNjctMC4wNTIgMC4yNjYtMC4xMiAwLjI4MS0wLjMwNyAwLjAxNi0wLjE5OCAwLjA2OC0wLjM5NiAwLjA5OS0wLjU4OSAwLjMyMy0xLjgxOCAwLjY0Ni0zLjYzNSAwLjk2OS01LjQ1MyAwLjA5NC0wLjUxNiAwLjE4OC0xLjAyNiAwLjI4MS0xLjU0MnoiLz4mI3hhOzwvc3ZnPg==;" vertex="1" parent="1">
          <mxGeometry x="610" y="230" width="160" height="160" as="geometry" />
        </mxCell>
        <mxCell id="yr1k9GJffEIeBtFJ-WGa-5" value="" style="shape=image;imageAspect=0;aspect=fixed;verticalLabelPosition=bottom;verticalAlign=top;image=data:image/svg+xml,PHN2ZyB4bWw6c3BhY2U9InByZXNlcnZlIiB2aWV3Qm94PSIwIDAgNDkwLjY2NyA0OTAuNjY3IiB4bWxuczp4bGluaz0iaHR0cDovL3d3dy53My5vcmcvMTk5OS94bGluayIgeG1sbnM9Imh0dHA6Ly93d3cudzMub3JnLzIwMDAvc3ZnIiBpZD0iTGF5ZXJfMSIgdmVyc2lvbj0iMS4xIiB3aWR0aD0iODAwcHgiIGhlaWdodD0iODAwcHgiIGZpbGw9IiMwMDAwMDAiPiYjeGE7PGc+JiN4YTsJPGc+JiN4YTsJCTxwYXRoIGQ9Ik0yNDUuMzMzLDBDMTcyLjkyOCwwLDk2LDIyLjQyMSw5Niw2NHYxOTJjMCw0Mi4wMjcsNzUuMTE1LDY0LDE0OS4zMzMsNjRzMTQ5LjMzMy0yMS45NzMsMTQ5LjMzMy02NFY2NCYjeEE7JiM5OyYjOTsmIzk7QzM5NC42NjcsMjIuNDIxLDMxNy43MzksMCwyNDUuMzMzLDB6IE0zNzMuMzMzLDI1NmMwLDIwLjE4MS01Mi41NjUsNDIuNjY3LTEyOCw0Mi42NjdzLTEyOC0yMi40ODUtMTI4LTQyLjY2N3YtMjkuOTA5JiN4QTsmIzk7JiM5OyYjOTtjMjcuODgzLDE5LjU4NCw3OC45MzMsMjkuOTA5LDEyOCwyOS45MDlzMTAwLjExNy0xMC4zMjUsMTI4LTI5LjkwOVYyNTZ6IE0zNzMuMzMzLDE5MmMwLDE3LjgxMy00OC43MDQsNDIuNjY3LTEyOCw0Mi42NjcmI3hBOyYjOTsmIzk7JiM5O3MtMTI4LTI0Ljg1My0xMjgtNDIuNjY3di0yOS45MDljMjcuODgzLDE5LjU4NCw3OC45MzMsMjkuOTA5LDEyOCwyOS45MDlzMTAwLjExNy0xMC4zMjUsMTI4LTI5LjkwOVYxOTJ6IE0zNzMuMzMzLDEyOCYjeEE7JiM5OyYjOTsmIzk7YzAsMTcuODEzLTQ4LjcwNCw0Mi42NjctMTI4LDQyLjY2N3MtMTI4LTI0Ljg1My0xMjgtNDIuNjY3Vjk4LjA5MWMyNy44ODMsMTkuNTg0LDc4LjkzMywyOS45MDksMTI4LDI5LjkwOSYjeEE7JiM5OyYjOTsmIzk7czEwMC4xMTctMTAuMzI1LDEyOC0yOS45MDlWMTI4eiBNMjQ1LjMzMywxMDYuNjY3Yy03OS4yOTYsMC0xMjgtMjQuODUzLTEyOC00Mi42NjdjMC0xNy44MTMsNDguNzA0LTQyLjY2NywxMjgtNDIuNjY3JiN4QTsmIzk7JiM5OyYjOTtzMTI4LDI0Ljg1MywxMjgsNDIuNjY3QzM3My4zMzMsODEuODEzLDMyNC42MjksMTA2LjY2NywyNDUuMzMzLDEwNi42Njd6Ii8+JiN4YTsJPC9nPiYjeGE7PC9nPiYjeGE7PGc+JiN4YTsJPGc+JiN4YTsJCTxwYXRoIGQ9Ik0yNDguNjYxLDM4NC40MDVsLTMuMTU3LTAuNTMzQzIyNi43OTUsMzgwLjgyMSwyMjQsMzc1Ljk1NywyMjQsMzczLjMzM2MwLTQuMjQ1LDguNTEyLTEwLjY2NywyMS4zNTUtMTAuNjY3JiN4QTsmIzk7JiM5OyYjOTtjMTIuNjA4LDAsMjAuOTI4LDUuOTk1LDIxLjM1NSwxMC4zMDRjMC41NTUsNS44NjcsNS43MzksMTAuMzg5LDExLjYyNyw5LjZjNS44NjctMC41NTUsMTAuMTU1LTUuNzYsOS42LTExLjYyNyYjeEE7JiM5OyYjOTsmIzk7Yy0xLjYyMS0xNi44OTYtMTkuOTI1LTI5LjYzMi00Mi42MDMtMjkuNjMyYy0yMy45MzYsMC00Mi42ODgsMTQuMDU5LTQyLjY4OCwzMmMwLDE2LjcwNCwxMy4yNDgsMjcuMzI4LDM5LjQwMywzMS41OTUmI3hBOyYjOTsmIzk7JiM5O2wxLjcyOC0xMC41MTdsMS40MjksMTEuMDUxYzE3LjcyOCwyLjkyMywyMS40NCw3LjM2LDIxLjQ0LDEwLjU2YzAsNC4yNDUtOC41MTIsMTAuNjY3LTIxLjM1NSwxMC42NjcmI3hBOyYjOTsmIzk7JiM5O2MtMTIuNjA4LDAtMjAuOTI4LTYuMDE2LTIxLjM1NS0xMC4zMjVjLTAuNTU1LTUuODY3LTUuNjExLTEwLjI0LTExLjYyNy05LjZjLTUuODY3LDAuNTU1LTEwLjE1NSw1Ljc2LTkuNiwxMS42MjcmI3hBOyYjOTsmIzk7JiM5O0MyMDQuMzMxLDQzNS4yNjQsMjIyLjYzNSw0NDgsMjQ1LjMxMiw0NDhDMjY5LjI0OCw0NDgsMjg4LDQzMy45NDEsMjg4LDQxNkMyODgsMzk5LjMxNywyNzQuNzczLDM4OC42OTMsMjQ4LjY2MSwzODQuNDA1eiIvPiYjeGE7CTwvZz4mI3hhOzwvZz4mI3hhOzxnPiYjeGE7CTxnPiYjeGE7CQk8cGF0aCBkPSJNMzk0LjY2NywzNzMuMzMzYzAtMTcuNjQzLTE0LjM1Ny0zMi0zMi0zMmgtMjEuMzMzYy0xNy42NDMsMC0zMiwxNC4zNTctMzIsMzJWNDE2YzAsMTcuNjQzLDE0LjM1NywzMiwzMiwzMmgyMS4zMzMmI3hBOyYjOTsmIzk7JiM5O2M0LjkyOCwwLDkuNTM2LTEuMjE2LDEzLjY5Ni0zLjJsMC4wODUsMC4wODVjMi4wOTEsMi4wNjksNC44MjEsMy4xMTUsNy41NTIsMy4xMTVzNS40NjEtMS4wNDUsNy41MzEtMy4xMTUmI3hBOyYjOTsmIzk7JiM5O2M0LjE2LTQuMTYsNC4xNi0xMC45MjMsMC0xNS4wODNsLTAuMDg1LTAuMDg1YzIuMDA1LTQuMTYsMy4yMjEtOC43ODksMy4yMjEtMTMuNzE3VjM3My4zMzN6IE0zNzMuMzMzLDQxMS42MDVsLTMuMTM2LTMuMTM2JiN4QTsmIzk7JiM5OyYjOTtjLTQuMTYtNC4xNi0xMC45MjMtNC4xNi0xNS4wODMsMGMtNC4xNiw0LjE2LTQuMTYsMTAuOTIzLDAsMTUuMDgzbDMuMTE1LDMuMTE1aC0xNi44OTZjLTUuODg4LDAtMTAuNjY3LTQuNzc5LTEwLjY2Ny0xMC42NjcmI3hBOyYjOTsmIzk7JiM5O3YtNDIuNjY3YzAtNS44ODgsNC43NzktMTAuNjY3LDEwLjY2Ny0xMC42NjdoMjEuMzMzYzUuODg4LDAsMTAuNjY3LDQuNzc5LDEwLjY2NywxMC42NjdWNDExLjYwNXoiLz4mI3hhOwk8L2c+JiN4YTs8L2c+JiN4YTs8Zz4mI3hhOwk8Zz4mI3hhOwkJPHBhdGggZD0iTTQ2OS4zMzMsNDI2LjY2N2gtMzJWMzUyYzAtNS44ODgtNC43NzktMTAuNjY3LTEwLjY2Ny0xMC42NjdjLTUuODg4LDAtMTAuNjY3LDQuNzc5LTEwLjY2NywxMC42Njd2ODUuMzMzJiN4QTsmIzk7JiM5OyYjOTtjMCw1Ljg4OCw0Ljc3OSwxMC42NjcsMTAuNjY3LDEwLjY2N2g0Mi42NjdjNS44ODgsMCwxMC42NjctNC43NzksMTAuNjY3LTEwLjY2N0M0ODAsNDMxLjQ0NSw0NzUuMjIxLDQyNi42NjcsNDY5LjMzMyw0MjYuNjY3eiIvPiYjeGE7CTwvZz4mI3hhOzwvZz4mI3hhOzxnPiYjeGE7CTxnPiYjeGE7CQk8cGF0aCBkPSJNMTc1LjQ0NSwzODUuMTA5Yy01LjI5MS0yLjYyNC0xMS42NjktMC40OTEtMTQuMzE1LDQuNzc5bC0xMS43OTcsMjMuNjE2bC0xMS43OTctMjMuNTk1JiN4QTsmIzk7JiM5OyYjOTtjLTIuNjQ1LTUuMjY5LTkuMDQ1LTcuNDAzLTE0LjMxNS00Ljc3OWMtNS4yNjksMi42NDUtNy40MjQsOS4wNDUtNC43NzksMTQuMzE1bDE4Ljk2NSwzNy45MDlsLTE4Ljk0NCwzNy44NjcmI3hBOyYjOTsmIzk7JiM5O2MtMi42MjQsNS4yNjktMC40OTEsMTEuNjY5LDQuNzc5LDE0LjMxNWMxLjUzNiwwLjc2OCwzLjE1NywxLjEzMSw0Ljc1NywxLjEzMWMzLjkwNCwwLDcuNjU5LTIuMTU1LDkuNTU3LTUuOTA5bDQyLjY2Ny04NS4zMzMmI3hBOyYjOTsmIzk7JiM5O0MxODIuODQ4LDM5NC4xNTUsMTgwLjcxNSwzODcuNzU1LDE3NS40NDUsMzg1LjEwOXoiLz4mI3hhOwk8L2c+JiN4YTs8L2c+JiN4YTs8Zz4mI3hhOwk8Zz4mI3hhOwkJPHBhdGggZD0iTTg4LjcwNCwzNDEuODg4Yy00LjMzMS0xLjQ3Mi05LjE1MiwwLjA0My0xMS45MDQsMy43MTJsLTIzLjQ2NywzMS4yNzVMMjkuODY3LDM0NS42JiN4QTsmIzk7JiM5OyYjOTtjLTIuNzUyLTMuNjY5LTcuNTA5LTUuMTg0LTExLjkwNC0zLjcxMmMtNC4zNTIsMS40NTEtNy4yOTYsNS41MjUtNy4yOTYsMTAuMTEydjg1LjMzM2MwLDUuODg4LDQuNzc5LDEwLjY2NywxMC42NjcsMTAuNjY3JiN4QTsmIzk7JiM5OyYjOTtTMzIsNDQzLjIyMSwzMiw0MzcuMzMzVjM4NGwxMi44LDE3LjA2N2M0LjAzMiw1LjM3NiwxMy4wNTYsNS4zNzYsMTcuMDY3LDBMNzQuNjY3LDM4NHY1My4zMzNjMCw1Ljg4OCw0Ljc3OSwxMC42NjcsMTAuNjY3LDEwLjY2NyYjeEE7JiM5OyYjOTsmIzk7Uzk2LDQ0My4yMjEsOTYsNDM3LjMzM1YzNTJDOTYsMzQ3LjQxMyw5My4wNTYsMzQzLjMzOSw4OC43MDQsMzQxLjg4OHoiLz4mI3hhOwk8L2c+JiN4YTs8L2c+JiN4YTs8L3N2Zz4=;" vertex="1" parent="1">
          <mxGeometry x="620" y="540" width="190" height="190" as="geometry" />
        </mxCell>
        <mxCell id="yr1k9GJffEIeBtFJ-WGa-6" value="" style="shape=flexArrow;endArrow=classic;html=1;rounded=0;" edge="1" parent="1">
          <mxGeometry width="50" height="50" relative="1" as="geometry">
            <mxPoint x="-100" y="320" as="sourcePoint" />
            <mxPoint x="100" y="320" as="targetPoint" />
          </mxGeometry>
        </mxCell>
        <mxCell id="yr1k9GJffEIeBtFJ-WGa-7" value="&lt;div&gt;&lt;font style=&quot;font-size: 18px;&quot;&gt;Source of Data&lt;/font&gt;&lt;/div&gt;&lt;div&gt;&lt;font style=&quot;font-size: 18px;&quot;&gt;&lt;br&gt;&lt;/font&gt;&lt;/div&gt;&lt;div&gt;&lt;br&gt;&lt;/div&gt;" style="text;html=1;strokeColor=none;fillColor=none;align=center;verticalAlign=middle;whiteSpace=wrap;rounded=0;" vertex="1" parent="1">
          <mxGeometry x="-90" y="300" width="150" height="50" as="geometry" />
        </mxCell>
        <mxCell id="yr1k9GJffEIeBtFJ-WGa-9" value="" style="shape=flexArrow;endArrow=classic;html=1;rounded=0;" edge="1" parent="1">
          <mxGeometry width="50" height="50" relative="1" as="geometry">
            <mxPoint x="425" y="324.5" as="sourcePoint" />
            <mxPoint x="600" y="324.5" as="targetPoint" />
          </mxGeometry>
        </mxCell>
        <mxCell id="yr1k9GJffEIeBtFJ-WGa-10" value="&lt;div&gt;&lt;font style=&quot;font-size: 18px;&quot;&gt;Streamed every 3 seconds&lt;/font&gt;&lt;/div&gt;&lt;div&gt;&lt;br&gt;&lt;/div&gt;" style="text;html=1;strokeColor=none;fillColor=none;align=center;verticalAlign=middle;whiteSpace=wrap;rounded=0;" vertex="1" parent="1">
          <mxGeometry x="400" y="280" width="200" height="50" as="geometry" />
        </mxCell>
        <mxCell id="yr1k9GJffEIeBtFJ-WGa-11" value="" style="shape=flexArrow;endArrow=classic;html=1;rounded=0;" edge="1" parent="1">
          <mxGeometry width="50" height="50" relative="1" as="geometry">
            <mxPoint x="670" y="400" as="sourcePoint" />
            <mxPoint x="670" y="530" as="targetPoint" />
          </mxGeometry>
        </mxCell>
        <mxCell id="yr1k9GJffEIeBtFJ-WGa-12" value="" style="shape=flexArrow;endArrow=classic;html=1;rounded=0;" edge="1" parent="1">
          <mxGeometry width="50" height="50" relative="1" as="geometry">
            <mxPoint x="740" y="530" as="sourcePoint" />
            <mxPoint x="740" y="400" as="targetPoint" />
          </mxGeometry>
        </mxCell>
        <mxCell id="yr1k9GJffEIeBtFJ-WGa-13" value="&lt;div&gt;&lt;font style=&quot;font-size: 18px;&quot;&gt;Stream/Batch Processed data stored&lt;/font&gt;&lt;/div&gt;" style="text;html=1;strokeColor=none;fillColor=none;align=center;verticalAlign=middle;whiteSpace=wrap;rounded=0;rotation=-90;" vertex="1" parent="1">
          <mxGeometry x="570" y="425" width="120" height="60" as="geometry" />
        </mxCell>
        <mxCell id="yr1k9GJffEIeBtFJ-WGa-15" value="&lt;font style=&quot;font-size: 18px;&quot;&gt;Data Ingested for Batch processing&lt;/font&gt;" style="text;html=1;strokeColor=none;fillColor=none;align=center;verticalAlign=middle;whiteSpace=wrap;rounded=0;rotation=90;" vertex="1" parent="1">
          <mxGeometry x="730" y="440" width="120" height="70" as="geometry" />
        </mxCell>
        <mxCell id="yr1k9GJffEIeBtFJ-WGa-17" value="&lt;div&gt;&lt;b&gt;&lt;font style=&quot;font-size: 36px;&quot;&gt;Spark&lt;/font&gt;&lt;/b&gt;&lt;/div&gt;&lt;div&gt;&lt;br&gt;&lt;/div&gt;" style="text;html=1;strokeColor=none;fillColor=none;align=center;verticalAlign=middle;whiteSpace=wrap;rounded=0;" vertex="1" parent="1">
          <mxGeometry x="780" y="287.5" width="80" height="45" as="geometry" />
        </mxCell>
      </root>
    </mxGraphModel>
  </diagram>
</mxfile>
